<svg width="269" height="93" viewBox="0 0 269 93" fill="none" xmlns="http://www.w3.org/2000/svg">
<path d="M115.903 63.1032C119.755 55.4783 120.919 47.2019 119.275 39.1171C117.631 31.0323 113.239 23.4283 106.545 17.0798C99.8518 10.7313 91.0965 5.86527 81.1715 2.9776C71.2466 0.0899257 60.5068 -0.716189 50.0466 0.641395L52.7297 12.9471C60.3702 11.9555 68.2149 12.5443 75.4644 14.6535C82.7138 16.7628 89.109 20.3171 93.9981 24.9542C98.8873 29.5913 102.096 35.1456 103.296 41.0509C104.497 46.9563 103.647 53.0017 100.833 58.5711L115.903 63.1032Z" fill="#1A87AA"/>
<path d="M3.06013 31.6962C-0.50932 39.9854 -0.966167 48.8846 1.74237 57.3656C4.45091 65.8466 10.2143 73.5633 18.3666 79.6242C26.519 85.6851 36.7276 89.8428 47.813 91.617C58.8985 93.3911 70.4083 92.7093 81.0128 89.6503L75.3484 77.962C67.6026 80.1964 59.1954 80.6944 51.0983 79.3985C43.0011 78.1026 35.5444 75.0657 29.5897 70.6386C23.635 66.2115 19.4252 60.575 17.4468 54.3802C15.4684 48.1854 15.8021 41.6852 18.4094 35.6305L3.06013 31.6962Z" fill="#1A87AA"/>
<path d="M72.1622 21.519C65.9777 18.9466 58.9487 18.0942 52.1273 19.0893C45.3059 20.0845 39.059 22.8738 34.3215 27.0396C29.5841 31.2055 26.611 36.5238 25.8471 42.1987C25.0833 47.8736 26.5698 53.5997 30.0842 58.5201L41.4661 52.9974C39.3994 50.1038 38.5251 46.7363 38.9744 43.399C39.4236 40.0617 41.172 36.9341 43.958 34.4842C46.7441 32.0343 50.4178 30.394 54.4294 29.8087C58.441 29.2235 62.5746 29.7248 66.2116 31.2376L72.1622 21.519Z" fill="#2AFADF"/>
<path d="M44.4803 69.1841C50.79 71.5409 57.8561 72.1502 64.6211 70.9206C71.386 69.691 77.4858 66.6888 82.0076 62.3632C86.5294 58.0376 89.2299 52.6214 89.705 46.9251C90.18 41.2289 88.4041 35.559 84.643 30.7641L73.5514 36.6745C75.7633 39.4943 76.8077 42.8287 76.5283 46.1786C76.2489 49.5285 74.6608 52.7137 72.0016 55.2575C69.3424 57.8013 65.7551 59.5669 61.7768 60.29C57.7984 61.0131 53.6429 60.6548 49.9323 59.2688L44.4803 69.1841Z" fill="#2AFADF"/>
<path d="M68.7376 46.4982C69.0354 44.8878 68.8385 43.2369 68.1672 41.7156C67.4958 40.1943 66.3744 38.8576 64.9184 37.8432C63.4623 36.8289 61.7244 36.1737 59.8838 35.945C58.0431 35.7164 56.1662 35.9226 54.4466 36.5425L56.1801 40.2458C57.1492 39.8965 58.207 39.7802 59.2444 39.9091C60.2818 40.0379 61.2613 40.4072 62.0819 40.9789C62.9025 41.5506 63.5346 42.3039 63.9129 43.1614C64.2913 44.0188 64.4023 44.9492 64.2344 45.8568L68.7376 46.4982Z" fill="#F87878"/>
<path d="M48.3436 42.5814C47.7921 44.3301 47.8439 46.183 48.4923 47.9059C49.1408 49.6288 50.3569 51.1443 51.9869 52.2606C53.6168 53.377 55.5873 54.0441 57.6493 54.1777C59.7113 54.3112 61.7721 53.9052 63.5711 53.0109L61.3226 49.5274C60.3087 50.0314 59.1472 50.2602 57.9851 50.185C56.823 50.1097 55.7124 49.7337 54.7937 49.1045C53.8751 48.4753 53.1897 47.6212 52.8242 46.6502C52.4587 45.6792 52.4296 44.6349 52.7404 43.6493L48.3436 42.5814Z" fill="#F87878"/>
<path d="M147.19 38.77L145.795 38.815C144.955 38.815 144.085 38.635 143.185 38.275C142.645 35.935 142.375 34.105 142.375 32.785C142.375 31.465 142.435 30.37 142.555 29.5H163.21C163.93 30.46 164.41 31.645 164.65 33.055L148.81 56.68H158.575L159.565 51.865L161.005 51.82C161.845 51.82 162.715 52 163.615 52.36C164.125 54.61 164.38 56.38 164.38 57.67C164.38 58.96 164.32 60.07 164.2 61H142.465C141.715 60.04 141.235 58.885 141.025 57.535L156.82 33.955H148.27L147.19 38.77ZM175.662 61.54C173.112 61.54 171.132 61.015 169.722 59.965C168.342 58.915 167.652 57.145 167.652 54.655C167.652 52.285 168.477 50.35 170.127 48.85C171.087 47.98 172.422 47.47 174.132 47.32C175.842 47.17 178.197 47.095 181.197 47.095V46.375C181.197 44.545 180.897 43.21 180.297 42.37C179.727 41.5 178.707 41.065 177.237 41.065C176.487 41.065 175.812 41.215 175.212 41.515L174.132 45.43L170.802 45.34C170.052 44.2 169.647 42.385 169.587 39.895C170.187 39.595 171.597 39.145 173.817 38.545C176.037 37.915 177.462 37.6 178.092 37.6C181.332 37.6 183.687 38.275 185.157 39.625C186.627 40.945 187.362 43.06 187.362 45.97C187.362 48.85 187.227 52.66 186.957 57.4C188.667 57.55 189.987 57.805 190.917 58.165C190.947 58.525 190.962 58.96 190.962 59.47L190.917 60.46C188.757 61.18 186.582 61.54 184.392 61.54C183.822 61.54 183.402 61.525 183.132 61.495C182.682 60.595 182.412 59.515 182.322 58.255H182.097C181.527 58.795 180.522 59.485 179.082 60.325C177.672 61.135 176.532 61.54 175.662 61.54ZM173.412 54.925C173.412 55.915 173.712 56.65 174.312 57.13C174.942 57.58 175.647 57.805 176.427 57.805C177.207 57.805 178.137 57.46 179.217 56.77C180.297 56.05 181.167 55.405 181.827 54.835L181.602 50.695C179.232 50.815 177.447 51.04 176.247 51.37C174.357 51.76 173.412 52.945 173.412 54.925ZM200.459 53.215L200.414 56.68L203.924 57.085C203.924 58.315 203.579 59.62 202.889 61H191.684L191.279 58.525C193.139 57.835 194.489 57.385 195.329 57.175L194.474 32.2C193.064 32.05 191.879 31.825 190.919 31.525C190.919 30.415 191.024 29.335 191.234 28.285C193.004 27.805 196.034 27.565 200.324 27.565C200.894 27.565 201.254 27.58 201.404 27.61C201.404 29.17 201.209 30.535 200.819 31.705C200.639 38.905 200.549 44.245 200.549 47.725L205.904 42.415L203.114 42.055C203.114 40.825 203.459 39.52 204.149 38.14H215.354L215.759 40.615C213.899 41.305 212.549 41.755 211.709 41.965L206.759 46.915L213.059 56.68L216.569 57.085C216.569 58.315 216.224 59.62 215.534 61H209.774L203.114 50.56L200.459 53.215ZM227.406 37.96C227.976 37.96 228.336 37.975 228.486 38.005C228.486 39.475 228.231 40.84 227.721 42.1C227.601 48.58 227.526 53.44 227.496 56.68L231.006 57.085C231.006 58.315 230.661 59.62 229.971 61H218.766L218.361 58.525C220.221 57.835 221.571 57.385 222.411 57.175L221.916 42.595C220.146 42.415 218.841 42.19 218.001 41.92C218.001 41.17 218.106 40.09 218.316 38.68C220.086 38.2 223.116 37.96 227.406 37.96ZM227.406 29.455C227.676 30.805 227.811 31.84 227.811 32.56C227.811 33.25 227.751 34.03 227.631 34.9C226.431 35.17 225.411 35.305 224.571 35.305C223.761 35.305 222.771 35.26 221.601 35.17C221.331 33.82 221.196 32.8 221.196 32.11C221.196 31.39 221.256 30.595 221.376 29.725C222.576 29.455 223.581 29.32 224.391 29.32C225.231 29.32 226.236 29.365 227.406 29.455ZM238.954 55.285C239.224 56.365 239.359 57.295 239.359 58.075C239.359 58.825 239.314 59.68 239.224 60.64C238.204 60.91 237.229 61.045 236.299 61.045C235.369 61.045 234.349 61 233.239 60.91C232.939 59.71 232.789 58.84 232.789 58.3C232.789 57.73 232.849 56.815 232.969 55.555C233.959 55.285 234.904 55.15 235.804 55.15C236.734 55.15 237.784 55.195 238.954 55.285ZM253.309 56.86C257.959 56.86 260.284 55.195 260.284 51.865C260.284 49.435 259.714 47.905 258.574 47.275C257.464 46.615 254.944 46.285 251.014 46.285L250.834 56.77C251.854 56.83 252.679 56.86 253.309 56.86ZM253.039 42.595C255.349 42.535 256.984 42.235 257.944 41.695C258.904 41.155 259.384 40.03 259.384 38.32C259.384 36.58 258.829 35.425 257.719 34.855C256.609 34.285 254.929 34 252.679 34H251.059C250.999 37.78 250.969 40.63 250.969 42.55L253.039 42.595ZM253.084 61.045H241.969L241.564 58.57C243.124 57.94 244.384 57.505 245.344 57.265C245.344 57.175 245.209 49.24 244.939 33.46C244.459 33.34 243.214 32.95 241.204 32.29L241.564 29.545H254.029C257.599 29.545 260.374 30.235 262.354 31.615C264.334 32.995 265.324 34.99 265.324 37.6C265.324 38.86 264.979 40.225 264.289 41.695C263.629 43.165 262.864 44.035 261.994 44.305C263.314 45.025 264.349 46.03 265.099 47.32C265.849 48.61 266.224 50.095 266.224 51.775C266.224 54.535 265.099 56.77 262.849 58.48C260.599 60.19 257.344 61.045 253.084 61.045Z" fill="#1A87AA"/>
</svg>
